<?xml version="1.0" standalone="no"?>
<!DOCTYPE svg PUBLIC "-//W3C//DTD SVG 20010904//EN"
 "http://www.w3.org/TR/2001/REC-SVG-20010904/DTD/svg10.dtd">
<svg version="1.0" xmlns="http://www.w3.org/2000/svg"
 width="2236.000000pt" height="2236.000000pt" viewBox="0 0 2236.000000 2236.000000"
 preserveAspectRatio="xMidYMid meet">
<metadata>
Created by potrace 1.14, written by Peter Selinger 2001-2017
</metadata>
<g transform="translate(0.000000,2236.000000) scale(0.100000,-0.100000)"
fill="#000000" stroke="none">
<path d="M842 22335 c-174 -38 -323 -108 -452 -212 -163 -132 -297 -339 -352
-543 l-23 -85 0 -10365 0 -10365 23 -80 c91 -317 340 -566 657 -657 l80 -23
10410 0 10410 0 80 23 c317 91 566 340 657 657 l23 80 0 10410 0 10410 -23 80
c-90 315 -333 560 -652 657 l-75 23 -10350 2 c-8761 1 -10360 -1 -10413 -12z
m20048 -5932 l0 -4478 -1560 3 -1560 2 -3 1468 c-2 1383 -4 1470 -21 1527 -64
214 -189 367 -378 465 -116 61 -205 80 -366 80 -164 0 -232 -14 -362 -78 -80
-39 -109 -60 -186 -137 -78 -77 -98 -105 -137 -185 -82 -169 -77 -47 -77
-1682 l0 -1458 -1472 0 c-1653 0 -1524 6 -1698 -77 -81 -39 -108 -59 -186
-137 -78 -78 -98 -105 -137 -186 -63 -131 -77 -199 -77 -360 0 -161 14 -229
77 -360 39 -81 59 -108 137 -186 78 -78 105 -98 186 -137 174 -83 45 -77 1698
-77 l1472 0 3 -1577 c2 -1491 3 -1581 21 -1638 64 -214 189 -367 378 -465 116
-61 205 -80 366 -80 164 0 232 14 362 78 80 39 109 60 186 137 78 77 98 105
137 185 82 170 77 34 77 1792 l0 1568 1560 2 1560 3 0 -4472 0 -4473 -9705 0
-9705 0 0 4470 0 4470 1345 0 1345 0 0 -1537 c0 -1661 -2 -1597 53 -1733 41
-100 88 -170 167 -250 87 -87 172 -140 285 -177 68 -22 102 -27 230 -31 182
-5 247 8 385 75 80 39 108 59 186 137 78 78 98 105 137 186 83 174 77 35 77
1778 l0 1552 1225 0 1225 0 0 -1555 c0 -1745 -5 -1634 74 -1800 73 -155 187
-271 341 -345 116 -55 188 -70 346 -70 163 0 231 15 359 77 80 39 108 59 186
137 78 78 98 105 137 186 85 178 77 -233 77 3994 0 4215 7 3840 -74 4011 -73
155 -187 271 -341 345 -116 55 -188 70 -346 70 -163 0 -231 -15 -359 -77 -80
-39 -108 -59 -186 -137 -78 -78 -98 -105 -137 -186 -83 -173 -77 -47 -77
-1678 l0 -1452 -1225 0 -1225 0 0 1455 c0 1633 4 1534 -74 1700 -73 155 -187
271 -341 345 -116 55 -188 70 -347 70 -241 0 -386 -57 -543 -215 -104 -103
-162 -203 -195 -331 -19 -75 -20 -118 -20 -1551 l0 -1473 -1345 0 -1345 0 0
4475 0 4475 9705 0 9705 0 0 -4477z"/>
<path d="M11511 20470 c-214 -57 -382 -193 -475 -383 -85 -174 -77 234 -74
-4022 3 -3601 4 -3793 21 -3850 79 -268 276 -460 538 -526 70 -18 103 -20 233
-17 129 4 163 9 231 31 116 39 199 91 295 187 72 71 93 101 132 180 86 176 78
-234 78 3987 0 4083 3 3832 -53 3973 -80 198 -247 357 -448 425 -76 26 -99 29
-244 32 -135 2 -172 0 -234 -17z"/>
<path d="M2316 20350 c-39 -10 -108 -38 -155 -61 -70 -34 -104 -60 -177 -133
-78 -78 -98 -105 -137 -186 -63 -131 -77 -199 -77 -360 0 -161 14 -229 77
-360 39 -81 59 -108 137 -186 78 -78 105 -98 186 -137 178 -85 -235 -77 4010
-77 4245 0 3832 -8 4010 77 81 39 108 59 186 137 78 78 98 105 137 186 63 131
77 199 77 360 0 161 -14 229 -77 360 -39 81 -59 108 -137 186 -78 78 -105 98
-186 137 -178 85 236 77 -4016 76 -3668 0 -3791 -1 -3858 -19z"/>
<path d="M11505 10670 c-129 -35 -230 -94 -331 -195 -78 -77 -98 -105 -137
-185 -85 -175 -77 230 -74 -4022 2 -3640 3 -3795 21 -3853 65 -215 189 -367
378 -465 116 -61 205 -80 366 -80 164 0 232 14 362 78 80 39 109 60 186 137
78 77 98 105 137 185 85 175 77 -230 74 4022 -2 3640 -3 3795 -21 3853 -65
215 -189 367 -378 465 -118 62 -204 80 -372 79 -105 0 -159 -5 -211 -19z"/>
<path d="M2306 3530 c-39 -10 -108 -38 -155 -61 -70 -34 -104 -60 -177 -133
-78 -78 -98 -105 -137 -186 -63 -131 -77 -199 -77 -360 0 -161 14 -229 77
-360 39 -81 59 -108 137 -186 78 -78 105 -98 186 -137 178 -85 -235 -77 4010
-77 4245 0 3832 -8 4010 77 81 39 108 59 186 137 78 78 98 105 137 186 63 131
77 199 77 360 0 161 -14 229 -77 360 -39 81 -59 108 -137 186 -78 78 -105 98
-186 137 -178 85 236 77 -4016 76 -3668 0 -3791 -1 -3858 -19z"/>
</g>
</svg>
